<?xml version="1.0" standalone="no"?>
<!DOCTYPE svg PUBLIC "-//W3C//DTD SVG 20010904//EN"
 "http://www.w3.org/TR/2001/REC-SVG-20010904/DTD/svg10.dtd">
<svg version="1.0" xmlns="http://www.w3.org/2000/svg"
 width="512.000000pt" height="512.000000pt" viewBox="0 0 512.000000 512.000000"
 preserveAspectRatio="xMidYMid meet">
<metadata>
Created by potrace 1.16, written by Peter Selinger 2001-2019
</metadata>
<g transform="translate(0.000000,512.000000) scale(0.100000,-0.100000)"
fill="#000000" stroke="none">
<path d="M2246 5028 c-11 -6 -72 -24 -137 -39 -378 -90 -725 -297 -981 -584
-203 -226 -364 -529 -433 -811 -17 -70 -18 -72 -57 -83 -50 -15 -116 -75 -139
-126 -25 -54 -25 -157 0 -210 23 -49 74 -99 123 -119 22 -9 67 -16 106 -16
l69 0 7 -82 c18 -206 78 -424 170 -612 52 -105 108 -194 238 -373 142 -196
199 -371 226 -701 11 -125 33 -184 96 -259 43 -49 120 -101 179 -118 l42 -12
5 -259 5 -259 29 -60 c38 -77 114 -153 191 -191 l60 -29 515 0 515 0 60 29
c77 38 153 114 191 191 l29 60 5 259 5 259 42 12 c58 17 136 69 179 118 61 73
86 138 96 262 27 329 84 504 226 698 182 250 263 397 326 588 39 121 71 275
82 397 l7 82 71 0 c111 1 192 51 230 142 22 51 20 153 -3 203 -23 51 -89 111
-139 126 -39 11 -40 13 -57 83 -69 283 -229 584 -433 811 -256 287 -603 494
-980 584 -65 15 -127 33 -139 39 -30 16 -600 16 -627 0z m554 -588 l0 -440 80
0 80 0 2 413 3 414 75 -21 75 -22 5 -314 c6 -347 5 -343 72 -407 56 -54 91
-63 250 -63 161 0 197 11 255 71 51 54 63 95 63 216 l0 107 51 -49 c201 -197
371 -495 448 -787 l9 -38 -1708 0 -1708 0 9 38 c71 272 225 551 408 743 l90
94 1 -108 c0 -121 12 -162 63 -216 58 -60 94 -71 255 -71 159 0 194 9 250 63
67 64 66 60 72 407 l5 314 75 22 75 21 3 -414 2 -413 80 0 80 0 0 440 0 440
240 0 240 0 0 -440z m-960 41 c0 -144 -4 -240 -11 -261 -15 -42 -58 -60 -149
-60 -91 0 -134 18 -149 60 -6 19 -11 94 -11 171 l0 137 48 35 c58 43 242 147
259 147 10 0 13 -52 13 -229z m1565 173 c55 -31 121 -72 148 -91 l47 -35 0
-137 c0 -77 -5 -152 -11 -171 -15 -42 -58 -60 -149 -60 -91 0 -134 18 -149 60
-16 49 -15 490 2 490 6 0 57 -25 112 -56z m1020 -1308 c61 -26 61 -106 0 -132
-52 -21 -3678 -21 -3730 0 -60 25 -61 106 -2 131 49 21 3681 22 3732 1z
m-2905 -398 c0 -68 5 -104 19 -133 23 -51 75 -102 126 -125 77 -34 100 -89 71
-174 -20 -60 -20 -120 0 -180 19 -56 118 -161 179 -191 59 -28 139 -31 205 -8
83 30 136 7 170 -73 22 -51 73 -102 125 -125 57 -26 233 -26 290 0 51 23 102
75 125 126 35 79 87 101 170 72 66 -23 146 -20 205 8 51 25 145 119 170 170
27 57 31 133 10 199 -29 92 -7 145 75 179 46 18 98 71 121 122 14 29 19 65 19
133 l0 92 276 0 277 0 -7 -72 c-23 -240 -112 -499 -240 -698 -24 -36 -76 -110
-117 -165 -168 -226 -249 -450 -269 -742 -10 -154 -26 -199 -87 -254 -74 -66
-40 -64 -873 -64 -833 0 -799 -2 -873 64 -61 55 -76 100 -87 258 -20 287 -103
514 -269 738 -107 144 -157 223 -211 338 -80 169 -129 345 -146 525 l-7 72
277 0 276 0 0 -92z m480 4 c0 -150 56 -285 162 -390 108 -108 240 -162 398
-162 158 0 290 54 398 162 106 105 162 240 162 390 l0 88 161 0 162 0 -5 -75
c-6 -84 -15 -100 -76 -127 -64 -29 -106 -71 -136 -138 -33 -73 -37 -155 -11
-223 23 -61 15 -85 -44 -140 -54 -51 -72 -55 -128 -32 -57 24 -158 19 -223
-11 -71 -33 -96 -56 -130 -125 -39 -76 -51 -84 -130 -84 -77 0 -94 10 -122 72
-29 65 -66 103 -133 134 -70 34 -168 39 -228 14 -56 -23 -74 -19 -128 32 -59
55 -67 79 -44 140 52 137 -17 306 -149 363 -59 25 -68 41 -74 125 l-5 75 162
0 161 0 0 -88z m322 26 c-5 -80 10 -130 56 -180 50 -56 102 -78 182 -78 80 0
132 22 182 78 46 50 61 100 56 180 l-3 62 79 0 78 0 -4 -92 c-3 -73 -10 -105
-31 -151 -34 -74 -119 -160 -194 -195 -52 -24 -70 -27 -163 -27 -93 0 -111 3
-163 27 -75 35 -160 121 -194 195 -21 46 -28 78 -31 151 l-4 92 78 0 79 0 -3
-62z m288 32 c11 -11 20 -33 20 -50 0 -17 -9 -39 -20 -50 -11 -11 -33 -20 -50
-20 -17 0 -39 9 -50 20 -11 11 -20 33 -20 50 0 17 9 39 20 50 11 11 33 20 50
20 17 0 39 -9 50 -20z m590 -2210 l0 -80 -640 0 -640 0 0 80 0 80 640 0 640 0
0 -80z m-4 -307 c-9 -86 -33 -139 -83 -184 -71 -64 -71 -64 -553 -64 -482 0
-482 0 -553 64 -50 45 -74 98 -83 184 l-7 67 643 0 643 0 -7 -67z"/>
<path d="M2160 3760 l0 -80 80 0 80 0 0 80 0 80 -80 0 -80 0 0 -80z"/>
<path d="M2800 3760 l0 -80 80 0 80 0 0 80 0 80 -80 0 -80 0 0 -80z"/>
</g>
</svg>
