<?xml version="1.0" standalone="no"?>
<!DOCTYPE svg PUBLIC "-//W3C//DTD SVG 20010904//EN"
 "http://www.w3.org/TR/2001/REC-SVG-20010904/DTD/svg10.dtd">
<svg version="1.0" xmlns="http://www.w3.org/2000/svg"
 width="512.000000pt" height="512.000000pt" viewBox="0 0 512.000000 512.000000"
 preserveAspectRatio="xMidYMid meet">
<metadata>
Created by potrace 1.16, written by Peter Selinger 2001-2019
</metadata>
<g transform="translate(0.000000,512.000000) scale(0.100000,-0.100000)"
fill="#000000" stroke="none">
<path d="M1176 5101 c-16 -11 -38 -33 -48 -50 -18 -28 -19 -49 -16 -398 4
-345 6 -373 27 -443 94 -316 342 -565 661 -661 68 -20 101 -23 343 -26 l267
-5 0 -209 0 -209 -1152 0 c-1113 0 -1154 -1 -1182 -19 -15 -10 -37 -32 -47
-47 -18 -27 -19 -55 -19 -484 0 -429 1 -457 19 -484 39 -58 63 -66 209 -66 97
0 134 -3 136 -13 60 -205 135 -394 210 -526 l37 -65 -84 -85 c-47 -47 -90 -96
-96 -108 -14 -28 -14 -108 0 -136 16 -31 598 -615 631 -633 32 -17 110 -19
141 -3 12 6 61 50 109 97 66 65 90 83 100 75 22 -18 236 -123 307 -150 36 -15
113 -40 171 -58 l105 -31 5 -140 c5 -150 11 -169 67 -205 26 -18 57 -19 483
-19 429 0 457 1 484 19 58 39 66 63 66 209 0 97 3 134 13 136 186 53 377 129
517 206 l74 41 85 -85 c48 -46 96 -89 108 -95 31 -16 109 -14 141 3 33 18 615
602 631 633 14 28 14 108 0 136 -6 12 -49 60 -95 108 l-85 85 38 70 c81 148
156 335 209 522 2 9 39 12 136 12 146 0 170 8 209 66 18 27 19 55 19 484 0
429 -1 457 -19 484 -10 15 -32 37 -47 47 -28 18 -69 19 -1181 19 l-1153 0 0
209 0 209 268 4 c240 4 275 7 342 27 317 94 566 343 661 661 21 71 23 96 27
440 4 406 4 409 -63 450 -31 19 -51 20 -369 20 -371 0 -424 -6 -565 -61 -155
-61 -303 -171 -396 -292 -27 -36 -52 -66 -55 -66 -3 0 -31 34 -63 74 -109 139
-292 261 -477 316 -71 22 -95 23 -445 26 -353 3 -371 3 -399 -16z m739 -305
c114 -31 203 -83 296 -176 133 -132 181 -245 194 -461 l7 -114 -173 171 c-96
94 -185 179 -199 188 -35 23 -127 21 -164 -3 -46 -31 -66 -69 -66 -131 0 -35
6 -65 16 -80 9 -14 94 -103 188 -199 l171 -173 -112 6 c-136 8 -204 25 -303
73 -104 50 -231 177 -283 283 -59 120 -68 169 -74 419 l-6 224 224 -6 c158 -4
242 -10 284 -21z m1792 -198 c-6 -250 -15 -298 -74 -418 -53 -105 -179 -232
-283 -283 -98 -48 -166 -65 -303 -73 l-112 -6 171 173 c94 96 179 185 188 199
10 15 16 45 16 80 0 62 -20 100 -66 131 -37 24 -129 26 -164 3 -14 -9 -103
-94 -199 -188 l-173 -171 7 114 c4 63 13 139 21 170 50 198 222 383 419 451
82 28 168 37 379 39 l179 1 -6 -222z m-2482 -1815 c-4 -10 -10 -92 -13 -183
-5 -198 11 -321 64 -479 157 -472 572 -827 1054 -906 122 -19 338 -19 460 0
559 91 1017 552 1106 1115 12 79 15 145 12 270 -3 91 -9 173 -13 183 -7 16 19
17 454 17 l461 0 0 -250 0 -250 -122 0 c-179 0 -194 -14 -241 -210 -47 -196
-119 -369 -228 -550 -59 -100 -69 -122 -69 -163 0 -63 15 -88 99 -172 l71 -70
-172 -172 -173 -173 -75 74 c-89 88 -104 96 -167 96 -41 0 -62 -9 -148 -61
-191 -116 -367 -188 -590 -243 -117 -29 -128 -34 -163 -80 -20 -26 -22 -40
-22 -152 l0 -124 -250 0 -250 0 0 122 c0 179 -14 194 -210 241 -196 47 -380
124 -565 236 -86 52 -107 61 -148 61 -63 0 -78 -8 -167 -96 l-75 -74 -173 173
-172 172 71 70 c84 84 99 109 99 172 0 41 -9 63 -61 148 -113 187 -188 368
-236 565 -31 130 -44 159 -86 188 -30 20 -45 22 -155 22 l-122 0 0 250 0 250
461 0 c435 0 461 -1 454 -17z m2363 -53 c20 -97 10 -341 -18 -445 -79 -294
-289 -544 -565 -676 -459 -219 -1000 -75 -1300 346 -59 82 -128 229 -155 330
-28 100 -38 329 -21 431 7 37 15 72 17 76 3 4 460 7 1017 6 l1011 -3 14 -65z"/>
</g>
</svg>
