<?xml version="1.0" standalone="no"?>
<!DOCTYPE svg PUBLIC "-//W3C//DTD SVG 20010904//EN"
 "http://www.w3.org/TR/2001/REC-SVG-20010904/DTD/svg10.dtd">
<svg version="1.0" xmlns="http://www.w3.org/2000/svg"
 width="512.000000pt" height="512.000000pt" viewBox="0 0 512.000000 512.000000"
 preserveAspectRatio="xMidYMid meet">
<metadata>
Created by potrace 1.16, written by Peter Selinger 2001-2019
</metadata>
<g transform="translate(0.000000,512.000000) scale(0.100000,-0.100000)"
fill="#000000" stroke="none">
<path d="M2245 5096 c-77 -36 -159 -135 -178 -217 -5 -20 -17 -29 -49 -38 -24
-7 -80 -30 -125 -51 -331 -154 -572 -475 -623 -829 -12 -81 -13 -82 -51 -101
-54 -28 -107 -84 -135 -144 -18 -40 -24 -68 -24 -126 0 -81 19 -135 67 -199
21 -27 24 -37 14 -50 -6 -9 -26 -45 -44 -81 -30 -61 -32 -72 -32 -170 0 -97 2
-110 32 -172 62 -132 189 -219 329 -226 l71 -4 17 -54 c49 -156 142 -309 268
-439 l78 -82 0 -127 0 -126 -207 0 c-237 0 -298 -8 -438 -55 -158 -52 -271
-122 -403 -249 -139 -133 -230 -273 -291 -448 -57 -163 -61 -210 -61 -653 l0
-402 26 -27 27 -26 2047 0 2047 0 27 26 26 27 0 402 c0 443 -4 490 -61 653
-61 175 -152 315 -291 448 -132 127 -245 197 -403 249 -140 47 -201 55 -437
55 l-208 0 0 126 0 127 83 86 c125 130 214 276 262 432 l18 57 71 4 c140 7
267 94 329 226 30 62 32 75 32 172 0 98 -2 109 -32 170 -18 36 -38 72 -45 82
-10 13 -7 22 16 52 49 64 66 115 66 196 0 118 -49 207 -145 261 l-53 30 -12
81 c-51 353 -293 674 -623 828 -45 21 -101 44 -125 51 -32 9 -44 18 -49 38
-19 82 -101 181 -178 217 -48 23 -58 24 -315 24 -257 0 -267 -1 -315 -24z
m565 -213 c16 -18 34 -49 39 -70 7 -23 11 -163 11 -354 l0 -316 26 -27 c21
-21 36 -26 74 -26 38 0 53 5 74 26 l26 27 0 243 c0 134 2 244 4 244 16 0 130
-59 187 -97 192 -126 343 -352 384 -573 4 -19 9 -43 11 -52 5 -17 -51 -18
-1086 -18 -1035 0 -1091 1 -1086 18 2 9 7 33 11 52 41 221 192 447 384 573 57
38 171 97 187 97 2 0 4 -110 4 -244 l0 -243 26 -27 c21 -21 36 -26 74 -26 38
0 53 5 74 26 l26 27 0 321 c1 336 5 371 47 418 10 11 27 24 38 29 11 4 114 7
228 6 l209 -2 28 -32z m959 -1199 c17 -4 42 -18 56 -32 52 -52 20 -141 -56
-156 -41 -8 -2377 -8 -2418 0 -76 16 -108 104 -55 157 14 14 35 28 47 30 35 7
2391 8 2426 1z m-312 -601 c-7 -228 -20 -305 -68 -428 -53 -133 -106 -212
-214 -320 -116 -116 -212 -178 -355 -227 -92 -32 -100 -33 -260 -33 -161 0
-167 1 -262 34 -348 120 -595 439 -628 815 -5 61 -10 168 -10 239 l0 127 902
0 901 0 -6 -207z m-1997 7 l0 -190 -27 0 c-14 0 -46 11 -69 25 -91 53 -122
171 -69 261 28 48 95 94 138 94 l27 0 0 -190z m2296 165 c125 -74 125 -256 0
-330 -23 -14 -55 -25 -69 -25 l-27 0 0 190 0 190 27 0 c14 0 46 -11 69 -25z
m-1460 -1367 c68 -19 104 -22 264 -22 206 0 268 12 422 78 l78 34 0 -85 0 -84
-247 -260 c-136 -142 -250 -259 -253 -259 -3 0 -117 117 -253 259 l-247 260 0
84 0 85 78 -34 c44 -19 114 -44 158 -56z m-112 -517 l276 -290 0 -440 0 -441
-400 0 -400 0 0 139 c0 136 0 139 -26 165 -38 37 -110 37 -148 0 -26 -26 -26
-29 -26 -165 l0 -139 -100 0 -100 0 0 700 0 699 68 20 c37 11 82 22 100 25
l32 6 0 -334 0 -333 26 -27 c38 -37 110 -37 148 0 l26 27 0 338 0 339 124 0
124 0 276 -289z m1276 -50 l0 -338 26 -27 c38 -37 110 -37 148 0 l26 27 0 333
0 334 33 -6 c17 -3 62 -14 100 -25 l67 -20 0 -699 0 -700 -100 0 -100 0 0 139
c0 136 0 139 -26 165 -38 37 -110 37 -148 0 -26 -26 -26 -29 -26 -165 l0 -139
-400 0 -400 0 0 441 0 440 276 290 276 289 124 0 124 0 0 -339z m-2400 -476
l0 -645 -201 0 -202 0 6 323 c6 343 12 389 62 523 56 149 138 269 257 378 40
36 74 66 75 66 2 0 3 -290 3 -645z m3103 555 c98 -91 181 -217 232 -354 50
-134 56 -180 62 -523 l6 -323 -202 0 -201 0 0 647 0 646 28 -24 c15 -13 49
-44 75 -69z"/>
<path d="M1486 804 c-21 -21 -26 -36 -26 -74 0 -66 34 -100 100 -100 38 0 53
5 74 26 37 38 37 110 0 148 -21 21 -36 26 -74 26 -38 0 -53 -5 -74 -26z"/>
<path d="M3486 804 c-21 -21 -26 -36 -26 -74 0 -38 5 -53 26 -74 21 -21 36
-26 74 -26 66 0 100 34 100 100 0 38 -5 53 -26 74 -38 37 -110 37 -148 0z"/>
</g>
</svg>
