<?xml version="1.0" standalone="no"?>
<!DOCTYPE svg PUBLIC "-//W3C//DTD SVG 20010904//EN"
 "http://www.w3.org/TR/2001/REC-SVG-20010904/DTD/svg10.dtd">
<svg version="1.0" xmlns="http://www.w3.org/2000/svg"
 width="512.000000pt" height="512.000000pt" viewBox="0 0 512.000000 512.000000"
 preserveAspectRatio="xMidYMid meet">
<metadata>
Created by potrace 1.16, written by Peter Selinger 2001-2019
</metadata>
<g transform="translate(0.000000,512.000000) scale(0.100000,-0.100000)"
fill="#000000" stroke="none">
<path d="M2383 5100 c-18 -10 -39 -31 -49 -45 -9 -14 -38 -109 -63 -212 l-47
-188 -105 -27 c-57 -15 -113 -30 -125 -34 -17 -4 -45 19 -150 130 -71 75 -143
143 -160 151 -62 29 -118 20 -216 -36 -143 -82 -178 -120 -178 -195 0 -21 23
-117 51 -214 l51 -175 -93 -93 -92 -92 -173 50 c-95 27 -192 50 -215 50 -73 0
-110 -30 -179 -147 -64 -107 -80 -161 -65 -220 4 -17 62 -83 151 -174 l144
-145 -32 -124 -33 -124 -189 -47 c-104 -26 -200 -56 -214 -66 -51 -38 -62 -76
-62 -221 0 -214 7 -222 276 -288 l192 -48 6 -31 c3 -16 18 -73 33 -124 l26
-95 -141 -135 c-77 -75 -145 -149 -151 -164 -27 -71 -2 -150 91 -291 74 -111
108 -116 352 -46 l183 52 92 -92 92 -91 -51 -177 c-53 -189 -58 -224 -36 -275
17 -41 45 -65 129 -111 58 -32 66 -40 57 -55 -5 -10 -84 -133 -176 -272 -92
-140 -176 -274 -186 -298 -26 -58 -26 -154 0 -213 23 -54 74 -105 127 -129 38
-18 101 -19 1305 -19 1204 0 1267 1 1305 19 94 42 144 125 145 237 0 89 -7
103 -201 399 -80 121 -155 236 -167 257 l-23 36 73 41 c81 44 111 71 127 114
18 48 13 85 -39 269 l-51 177 92 92 92 92 184 -53 c243 -70 277 -65 351 46 93
141 118 220 91 291 -5 15 -74 89 -151 164 l-141 135 26 95 c15 51 30 108 33
124 l6 31 194 48 c269 67 274 72 274 289 0 145 -11 182 -63 221 -14 10 -108
39 -214 65 l-187 47 -9 34 c-5 19 -20 75 -34 124 l-24 89 145 146 c89 90 147
157 151 174 15 57 -1 112 -58 208 -107 182 -130 188 -401 109 l-173 -51 -92
93 -93 93 51 175 c28 97 51 193 51 214 0 75 -35 113 -178 195 -98 56 -154 65
-216 36 -17 -8 -89 -76 -160 -151 -105 -111 -133 -134 -150 -130 -12 4 -68 19
-125 34 l-105 27 -47 188 c-25 103 -54 198 -63 212 -37 56 -68 65 -226 65
-126 0 -149 -3 -177 -20z m301 -347 c46 -184 67 -232 108 -254 12 -6 71 -24
132 -40 61 -16 138 -36 172 -46 97 -27 124 -12 286 156 l133 137 66 -38 67
-38 -48 -163 c-82 -279 -85 -261 82 -428 66 -66 132 -127 144 -136 40 -26 110
-18 274 30 85 25 163 47 173 49 13 2 28 -15 55 -60 l37 -64 -147 -146 c-161
-162 -173 -183 -149 -267 6 -22 26 -97 45 -167 18 -70 41 -138 50 -152 25 -39
75 -59 264 -106 l172 -42 0 -77 0 -77 -181 -44 c-100 -25 -194 -53 -210 -62
-43 -26 -59 -59 -94 -191 -18 -67 -38 -142 -45 -167 -26 -90 -16 -109 147
-269 l146 -144 -29 -54 c-16 -30 -35 -59 -42 -65 -9 -8 -61 3 -192 41 -98 28
-189 51 -200 51 -48 0 -99 -36 -216 -154 -167 -169 -163 -153 -93 -400 l55
-193 -65 -35 -66 -36 -182 281 -183 281 73 39 c171 92 352 256 465 420 282
410 318 957 93 1401 -235 461 -705 746 -1229 746 -604 0 -1138 -402 -1307
-985 -99 -341 -57 -736 108 -1035 128 -231 334 -437 548 -550 l69 -36 -183
-281 -184 -281 -64 36 -65 35 54 191 c71 249 74 234 -93 402 -118 118 -168
154 -215 154 -11 0 -102 -23 -200 -51 -131 -38 -183 -49 -192 -41 -7 6 -26 35
-42 65 l-30 54 147 144 c169 166 173 176 142 289 -10 36 -30 111 -45 167 -30
112 -47 145 -89 171 -16 9 -110 37 -210 62 l-181 44 0 77 0 77 187 46 c256 64
249 58 303 266 16 63 35 133 41 155 24 83 12 105 -148 267 l-146 146 37 65
c36 65 36 66 69 56 345 -99 384 -106 431 -76 13 9 78 70 144 136 167 167 164
149 82 428 l-48 163 67 38 67 39 132 -138 c163 -170 188 -183 291 -155 36 10
113 31 171 46 58 15 115 32 127 38 42 23 62 70 109 255 l46 187 78 0 78 0 46
-187z m66 -678 c490 -80 870 -449 977 -949 24 -112 24 -342 -1 -454 -50 -234
-150 -423 -309 -589 -93 -97 -180 -164 -289 -223 l-77 -41 -15 30 c-40 75 -46
137 -46 428 l0 283 35 0 c106 0 242 102 283 213 29 77 29 176 1 254 -16 43
-37 74 -83 119 -103 102 -84 99 -666 99 -582 0 -563 3 -666 -99 -46 -45 -67
-76 -83 -119 -28 -78 -28 -177 1 -254 41 -111 177 -213 283 -213 l35 0 0 -283
c0 -291 -6 -353 -46 -428 l-15 -30 -77 41 c-109 59 -196 126 -289 223 -93 97
-146 172 -207 294 -117 234 -153 507 -101 758 130 628 727 1041 1355 940z
m282 -1015 c41 -12 104 -75 114 -115 10 -39 -2 -105 -24 -134 -38 -52 -79 -71
-154 -71 -83 0 -134 -19 -148 -55 -6 -16 -10 -165 -10 -368 0 -375 6 -431 58
-541 16 -34 238 -380 493 -771 319 -489 465 -720 467 -743 3 -25 -2 -40 -19
-58 l-22 -24 -1227 0 -1226 0 -23 21 c-48 45 -47 46 448 804 255 391 477 737
493 771 50 107 58 170 58 492 l0 292 145 0 c142 0 147 1 170 25 27 26 33 72
14 107 -22 42 -63 48 -317 48 -231 0 -240 1 -272 23 -49 33 -72 70 -78 125 -7
73 45 151 114 172 42 12 901 12 946 0z"/>
<path d="M2425 1621 c-17 -4 -43 -16 -59 -26 -39 -26 -681 -989 -696 -1044
-14 -51 0 -107 36 -151 54 -63 9 -60 857 -60 l774 0 33 23 c68 46 98 119 79
192 -7 24 -141 234 -342 535 -259 386 -340 499 -367 515 -28 16 -56 20 -160
22 -69 1 -139 -1 -155 -6z m528 -631 c169 -253 307 -462 307 -465 0 -3 -315
-5 -700 -5 -385 0 -700 2 -700 5 0 3 34 57 76 119 l76 115 163 3 c157 3 164 4
189 27 37 35 37 101 0 130 -23 18 -41 21 -125 21 -55 0 -99 2 -99 5 0 3 22 39
50 79 l49 74 135 4 c126 3 136 5 160 27 34 32 36 94 4 128 -19 20 -31 23 -100
23 l-79 0 58 85 58 84 85 1 86 0 307 -460z"/>
</g>
</svg>
