<?xml version="1.0" standalone="no"?>
<!DOCTYPE svg PUBLIC "-//W3C//DTD SVG 20010904//EN"
 "http://www.w3.org/TR/2001/REC-SVG-20010904/DTD/svg10.dtd">
<svg version="1.0" xmlns="http://www.w3.org/2000/svg"
 width="512.000000pt" height="512.000000pt" viewBox="0 0 512.000000 512.000000"
 preserveAspectRatio="xMidYMid meet">
<metadata>
Created by potrace 1.16, written by Peter Selinger 2001-2019
</metadata>
<g transform="translate(0.000000,512.000000) scale(0.100000,-0.100000)"
fill="#000000" stroke="none">
<path d="M1341 5094 c-19 -25 -21 -40 -21 -204 l0 -177 -97 34 c-131 46 -276
83 -323 83 -30 0 -43 -6 -59 -26 -21 -26 -21 -36 -21 -553 l0 -526 -92 -24
c-119 -30 -355 -115 -379 -137 -10 -9 -21 -29 -24 -44 l-6 -28 -103 -4 c-91
-3 -107 -6 -143 -30 -79 -52 -73 47 -73 -1287 0 -1178 0 -1191 20 -1211 27
-27 83 -27 110 0 20 20 20 33 20 1179 0 638 3 1166 6 1175 5 13 22 16 85 16
l79 0 0 -1484 0 -1483 21 -27 20 -26 2199 0 2199 0 20 26 21 27 0 1483 0 1484
79 0 c63 0 80 -3 85 -16 8 -20 8 -3118 0 -3138 -6 -14 -111 -16 -1089 -16
l-1083 0 -51 34 c-108 73 -254 73 -362 0 l-51 -34 -1083 0 c-978 0 -1083 2
-1089 16 -3 9 -6 107 -6 219 0 168 -3 206 -15 219 -32 32 -87 32 -119 0 -14
-13 -16 -51 -16 -258 0 -236 1 -244 22 -276 13 -18 36 -43 51 -54 28 -21 29
-21 1180 -24 l1151 -2 30 29 c41 38 88 61 126 61 38 0 85 -23 126 -61 l30 -29
1151 2 c1151 3 1152 3 1180 24 15 11 38 36 50 54 l23 33 0 1624 c0 1820 6
1669 -73 1721 -36 24 -52 27 -143 30 -101 4 -102 4 -109 30 -11 45 -33 59
-166 108 l-129 47 0 252 c0 323 9 305 -160 305 -423 0 -911 -125 -1300 -332
-91 -49 -311 -191 -376 -244 l-32 -25 -7 63 c-24 206 -101 465 -195 653 -189
378 -493 633 -894 749 -118 35 -168 34 -195 0z m231 -180 c455 -164 754 -542
867 -1094 39 -192 41 -257 41 -1447 l0 -1158 -58 110 c-84 161 -153 256 -272
375 -162 162 -356 279 -574 346 l-96 29 0 1433 c0 887 4 1432 9 1432 6 0 43
-12 83 -26z m-490 -290 c46 -14 118 -40 161 -56 l77 -31 0 -1277 c0 -1202 1
-1279 18 -1299 11 -14 49 -30 107 -46 135 -36 198 -60 300 -114 275 -144 480
-384 606 -710 26 -67 89 -282 89 -304 0 -5 -24 23 -52 61 -332 440 -815 776
-1306 908 l-102 27 0 1434 c0 897 4 1433 9 1433 6 0 47 -12 93 -26z m3258
-949 l0 -396 25 -24 c15 -16 36 -25 55 -25 19 0 40 9 55 25 24 23 25 31 25
136 0 102 1 111 18 104 9 -4 41 -16 70 -27 l52 -19 0 -1361 c0 -1291 -1 -1360
-17 -1353 -51 20 -255 68 -380 90 -257 45 -492 52 -751 24 -52 -6 -96 -8 -99
-6 -7 8 263 94 380 121 180 43 447 76 610 76 59 0 71 3 92 25 l25 24 0 896 0
896 -25 24 c-15 16 -36 25 -55 25 -19 0 -40 -9 -55 -25 l-25 -24 0 -840 0
-839 -62 -6 c-316 -27 -490 -56 -703 -117 -306 -88 -633 -249 -877 -435 l-58
-44 0 1409 0 1408 44 41 c158 146 449 320 706 422 198 79 452 144 655 169 143
18 146 18 223 20 l72 1 0 -395z m-3520 -1049 c0 -875 1 -935 18 -955 12 -15
52 -31 132 -52 537 -140 974 -445 1335 -931 l27 -38 -58 26 c-473 211 -1051
246 -1624 100 -74 -18 -143 -37 -152 -41 -17 -7 -18 62 -18 1353 l0 1360 68
26 c61 23 246 83 265 85 4 1 7 -419 7 -933z m835 -1942 c203 -28 426 -95 600
-179 l70 -33 -922 -1 -923 -1 0 45 0 44 78 25 c358 112 749 148 1097 100z
m2291 16 c223 -18 449 -61 632 -121 l62 -21 0 -44 0 -44 -922 1 -923 1 70 33
c256 124 560 193 891 203 34 1 119 -3 190 -8z"/>
</g>
</svg>
