<?xml version="1.0" standalone="no"?>
<!DOCTYPE svg PUBLIC "-//W3C//DTD SVG 20010904//EN"
 "http://www.w3.org/TR/2001/REC-SVG-20010904/DTD/svg10.dtd">
<svg version="1.0" xmlns="http://www.w3.org/2000/svg"
 width="512.000000pt" height="512.000000pt" viewBox="0 0 512.000000 512.000000"
 preserveAspectRatio="xMidYMid meet">
<metadata>
Created by potrace 1.16, written by Peter Selinger 2001-2019
</metadata>
<g transform="translate(0.000000,512.000000) scale(0.100000,-0.100000)"
fill="#000000" stroke="none">
<path d="M1893 5105 c-154 -42 -307 -164 -376 -301 -62 -123 -67 -159 -67
-471 0 -279 0 -280 23 -301 34 -32 96 -30 128 4 24 26 24 26 29 307 5 247 8
288 24 327 52 123 143 209 266 250 142 48 312 9 418 -97 117 -117 132 -176
132 -511 l0 -253 25 -24 c18 -19 35 -25 65 -25 30 0 47 6 65 25 l25 24 0 253
c0 277 8 333 57 418 41 69 116 138 191 173 62 30 75 32 173 32 101 0 108 -1
181 -38 83 -41 161 -115 193 -184 9 -21 24 -52 32 -69 21 -46 49 -54 155 -48
80 5 101 3 150 -15 100 -39 191 -140 212 -238 20 -89 1 -189 -49 -265 -51 -77
-24 -149 60 -163 123 -20 233 -75 322 -159 153 -144 208 -314 179 -552 l-8
-70 52 -60 c50 -56 111 -168 124 -226 l6 -28 -351 0 -351 0 -29 -29 c-39 -40
-39 -82 0 -122 l29 -29 351 0 351 0 -6 -27 c-11 -47 -43 -115 -85 -179 -57
-88 -54 -108 30 -199 69 -74 125 -169 137 -232 l6 -33 -546 0 -546 0 0 1040 0
1041 -25 24 c-32 33 -84 33 -122 1 l-28 -24 -3 -1041 -2 -1041 -420 0 -420 0
0 613 0 613 -22 44 c-15 30 -37 53 -63 67 -39 22 -47 23 -383 23 l-343 0 -24
-25 c-38 -37 -35 -95 6 -129 l31 -26 309 0 309 0 0 -590 0 -590 -165 0 -165 0
0 398 c0 365 -2 400 -19 438 -22 49 -60 80 -113 94 -25 7 -198 10 -496 8
l-457 -3 -37 -23 c-20 -13 -47 -40 -60 -60 -22 -35 -23 -47 -26 -272 -4 -274
1 -304 54 -326 40 -17 69 -11 102 19 22 20 22 25 22 254 l0 233 425 0 424 0 3
-418 3 -419 27 -35 c53 -69 40 -68 587 -68 l491 0 0 -615 0 -616 25 -24 c37
-38 95 -35 129 6 l26 31 0 354 0 354 250 0 250 0 0 -144 c0 -137 1 -146 23
-172 33 -38 101 -38 134 0 22 26 23 34 23 194 0 154 -2 170 -23 206 -27 48
-62 75 -113 86 -21 5 -153 10 -291 10 l-253 0 0 165 0 165 825 0 826 0 24 25
c22 21 25 33 25 93 0 134 -56 287 -145 396 l-44 55 24 43 c40 68 75 192 82
287 10 153 -41 327 -134 454 l-38 51 0 126 c-1 137 -17 220 -65 326 -70 155
-202 294 -352 369 -49 25 -96 45 -103 45 -21 0 -26 16 -15 44 22 60 31 158 20
235 -34 248 -251 441 -496 441 l-61 0 -42 64 c-81 126 -215 224 -356 261 -77
20 -230 19 -309 -1 -121 -31 -272 -135 -340 -234 l-17 -25 -17 25 c-8 14 -44
53 -79 87 -68 67 -168 123 -263 148 -69 19 -238 18 -307 0z"/>
<path d="M3030 4687 c-49 -25 -50 -32 -50 -494 l0 -433 -740 0 c-805 0 -778 2
-832 -56 -44 -47 -48 -73 -48 -289 0 -201 0 -204 24 -232 34 -39 98 -39 132 0
23 27 24 32 24 213 l0 184 720 0 720 0 0 -475 c0 -561 -3 -545 100 -545 30 0
43 6 59 26 21 27 21 30 21 1044 l0 1018 -31 26 c-34 29 -61 32 -99 13z"/>
<path d="M1044 4585 c-40 -41 -92 -162 -104 -242 -10 -75 -1 -182 20 -238 11
-29 6 -45 -15 -45 -7 0 -54 -20 -103 -45 -150 -75 -282 -214 -352 -369 -47
-105 -64 -189 -65 -327 l-1 -125 -37 -51 c-46 -62 -100 -178 -118 -253 -18
-72 -18 -239 0 -317 7 -35 31 -97 51 -140 l38 -76 -46 -56 c-58 -71 -107 -174
-128 -268 -25 -112 -16 -284 20 -380 65 -177 181 -309 338 -389 31 -16 49 -32
52 -47 34 -192 64 -278 136 -382 77 -112 224 -228 348 -274 54 -21 62 -27 73
-60 18 -58 77 -161 130 -226 86 -106 219 -197 354 -242 73 -25 93 -27 240 -28
141 0 168 3 229 23 181 61 341 182 423 320 14 23 29 42 33 42 4 0 19 -19 33
-42 65 -110 193 -220 329 -282 193 -89 444 -90 640 -3 171 76 338 250 399 417
21 57 23 59 81 81 65 24 156 79 225 137 129 107 252 346 253 489 0 39 17 56
100 103 35 19 85 55 111 81 44 40 49 50 49 87 0 55 -33 92 -83 92 -26 0 -49
-12 -98 -52 -59 -47 -169 -108 -195 -108 -6 0 -20 -10 -31 -23 -16 -17 -22
-41 -27 -108 -7 -107 -34 -194 -83 -277 -74 -124 -195 -223 -322 -263 -97 -29
-106 -38 -136 -128 -75 -227 -262 -381 -496 -410 -239 -31 -485 103 -593 324
-60 121 -66 167 -66 556 0 342 0 346 -23 389 -16 30 -37 51 -67 67 -41 22 -53
23 -254 23 -200 0 -214 -1 -256 -22 -30 -15 -53 -37 -67 -63 -21 -36 -23 -53
-23 -192 l0 -153 -165 0 -165 0 -2 614 -3 614 -24 26 c-33 35 -98 36 -129 3
-21 -22 -22 -32 -22 -210 l0 -187 -354 0 -354 0 -31 -26 c-41 -34 -44 -92 -6
-129 l24 -25 361 0 360 0 0 -365 c0 -397 0 -393 57 -447 43 -40 91 -48 293
-48 239 1 279 14 321 105 15 33 19 66 19 183 l0 142 165 0 165 0 0 -322 c0
-366 -6 -413 -67 -537 -49 -98 -150 -202 -248 -253 -225 -117 -491 -84 -672
85 -136 127 -193 260 -193 448 0 103 -1 111 -25 134 -30 31 -92 34 -126 6 -18
-14 -24 -32 -30 -85 -3 -37 -9 -69 -12 -72 -11 -11 -69 28 -135 90 -117 111
-177 240 -189 407 -7 101 -16 114 -96 143 -74 28 -165 94 -213 155 -80 101
-114 198 -114 322 0 137 45 243 151 355 85 89 87 109 30 198 -56 86 -79 143
-92 227 -22 143 25 292 132 414 l51 59 -8 70 c-29 238 26 408 180 553 80 76
173 125 285 149 43 9 86 25 99 37 33 31 29 82 -12 151 -66 110 -66 224 -1 343
39 71 42 91 20 132 -25 50 -99 58 -141 16z"/>
</g>
</svg>
