<?xml version="1.0" standalone="no"?>
<!DOCTYPE svg PUBLIC "-//W3C//DTD SVG 20010904//EN"
 "http://www.w3.org/TR/2001/REC-SVG-20010904/DTD/svg10.dtd">
<svg version="1.0" xmlns="http://www.w3.org/2000/svg"
 width="512.000000pt" height="512.000000pt" viewBox="0 0 512.000000 512.000000"
 preserveAspectRatio="xMidYMid meet">
<metadata>
Created by potrace 1.16, written by Peter Selinger 2001-2019
</metadata>
<g transform="translate(0.000000,512.000000) scale(0.100000,-0.100000)"
fill="#000000" stroke="none">
<path d="M437 4809 c-198 -47 -356 -196 -416 -393 -21 -68 -21 -69 -21 -1855
0 -1964 -4 -1829 62 -1961 44 -87 152 -194 238 -237 135 -68 -29 -63 2260 -63
2289 0 2125 -5 2260 63 86 43 194 150 238 237 66 132 62 -3 62 1961 0 1786 0
1787 -21 1855 -53 175 -166 296 -344 370 l-70 29 -2105 2 c-1221 0 -2121 -3
-2143 -8z m4228 -184 c110 -34 212 -130 256 -242 22 -56 23 -73 27 -400 l4
-343 -2392 0 -2392 0 4 343 c4 327 5 344 27 400 43 110 138 202 246 239 46 15
194 17 2110 17 1813 1 2066 -1 2110 -14z m285 -2452 c0 -712 -4 -1316 -9
-1350 -27 -182 -166 -320 -347 -344 -90 -11 -3978 -11 -4068 0 -181 24 -320
162 -347 344 -5 34 -9 638 -9 1350 l0 1287 2390 0 2390 0 0 -1287z"/>
<path d="M533 4397 c-61 -23 -118 -72 -148 -128 -26 -46 -30 -64 -30 -129 0
-79 21 -137 68 -188 73 -79 210 -105 308 -60 104 48 159 134 159 248 -1 106
-54 195 -145 242 -48 25 -165 34 -212 15z m151 -193 c56 -56 17 -154 -61 -154
-46 0 -93 45 -93 90 0 22 9 41 29 61 39 38 88 40 125 3z"/>
<path d="M1352 4391 c-227 -78 -239 -407 -18 -502 125 -54 275 -8 341 105 90
153 16 352 -149 401 -65 20 -109 18 -174 -4z m150 -190 c26 -23 32 -36 31 -67
-3 -99 -139 -119 -174 -25 -13 34 7 88 39 106 41 22 68 18 104 -14z"/>
<path d="M2211 4399 c-126 -24 -213 -132 -213 -264 -1 -153 112 -269 261 -269
87 0 135 17 192 71 60 56 84 115 83 204 -1 168 -154 291 -323 258z m116 -201
c50 -46 33 -127 -30 -147 -86 -29 -154 65 -100 137 34 45 87 49 130 10z"/>
<path d="M2658 2959 c-10 -5 -22 -18 -28 -28 -14 -26 -350 -1628 -350 -1669 0
-72 89 -109 144 -60 24 21 38 83 196 832 93 444 170 827 170 850 0 31 -6 48
-23 64 -25 24 -79 29 -109 11z"/>
<path d="M1972 2621 c-17 -12 -155 -126 -306 -255 -295 -252 -301 -260 -268
-322 18 -33 38 -51 376 -337 187 -159 212 -177 245 -177 60 1 98 46 87 105 -6
28 -42 64 -244 235 -130 111 -238 206 -240 210 -1 4 98 93 222 198 123 105
233 203 245 218 27 35 27 76 -1 108 -32 36 -75 42 -116 17z"/>
<path d="M3064 2630 c-53 -21 -69 -88 -33 -134 12 -15 122 -113 245 -218 124
-105 223 -194 222 -198 -2 -4 -110 -99 -240 -210 -202 -171 -238 -207 -244
-235 -11 -59 27 -104 87 -105 33 0 58 18 245 177 338 286 358 304 376 337 33
62 27 70 -268 322 -151 129 -289 243 -306 254 -36 22 -51 23 -84 10z"/>
</g>
</svg>
