<?xml version="1.0" standalone="no"?>
<!DOCTYPE svg PUBLIC "-//W3C//DTD SVG 20010904//EN"
 "http://www.w3.org/TR/2001/REC-SVG-20010904/DTD/svg10.dtd">
<svg version="1.0" xmlns="http://www.w3.org/2000/svg"
 width="512.000000pt" height="512.000000pt" viewBox="0 0 512.000000 512.000000"
 preserveAspectRatio="xMidYMid meet">
<metadata>
Created by potrace 1.16, written by Peter Selinger 2001-2019
</metadata>
<g transform="translate(0.000000,512.000000) scale(0.100000,-0.100000)"
fill="#000000" stroke="none">
<path d="M1857 5080 c-634 -61 -1201 -325 -1516 -705 -139 -169 -222 -336
-262 -526 -28 -136 -23 -340 10 -467 48 -182 157 -379 294 -528 l65 -71 -69
-283 c-38 -155 -69 -294 -69 -307 0 -32 60 -93 90 -93 13 0 187 43 388 95 200
53 367 94 369 91 2 -2 -7 -22 -20 -43 -145 -230 -205 -524 -162 -792 42 -256
162 -479 374 -692 227 -228 484 -382 826 -494 279 -92 512 -128 825 -129 277
0 491 22 798 83 l142 29 368 -100 c421 -114 455 -120 494 -89 48 38 46 64 -31
386 l-72 297 48 55 c229 263 343 539 343 833 0 315 -135 621 -385 874 -148
150 -368 306 -431 306 -41 0 -90 -40 -99 -81 -12 -54 11 -86 109 -151 296
-199 480 -425 563 -695 24 -79 27 -104 27 -248 1 -190 -15 -259 -94 -420 -56
-113 -113 -192 -224 -313 -57 -62 -76 -89 -76 -110 0 -16 25 -134 55 -262 30
-128 53 -235 51 -237 -2 -2 -147 35 -322 82 l-319 86 -200 -40 c-317 -63 -440
-76 -745 -75 -241 0 -278 3 -410 27 -720 130 -1246 516 -1392 1022 -32 112
-32 351 0 469 28 100 99 250 159 335 67 94 232 254 343 333 240 170 570 299
921 359 116 20 169 23 399 23 252 1 302 -3 488 -35 l62 -11 -37 -30 c-68 -55
-196 -135 -303 -188 -318 -160 -658 -237 -1075 -246 -193 -4 -223 -7 -245 -23
-51 -37 -48 -132 4 -166 54 -36 415 -27 677 16 511 82 959 300 1251 607 244
257 362 553 345 862 -34 591 -582 1111 -1377 1308 -213 53 -378 73 -635 77
-126 2 -269 0 -318 -5z m615 -220 c719 -93 1300 -469 1462 -948 72 -210 56
-441 -44 -651 -38 -79 -118 -202 -140 -216 -5 -3 -60 5 -122 19 -219 49 -334
60 -608 60 -193 0 -284 -4 -375 -17 -487 -72 -918 -258 -1225 -529 l-95 -84
-58 13 -59 13 -321 -85 c-176 -46 -322 -83 -324 -81 -2 2 21 107 52 232 35
142 54 240 51 258 -4 18 -40 64 -99 126 -228 237 -326 488 -296 757 42 379
332 718 803 938 191 89 467 167 691 194 50 6 101 13 115 15 14 2 118 4 232 5
155 1 246 -4 360 -19z"/>
<path d="M1264 4391 c-35 -21 -54 -65 -54 -122 0 -69 0 -69 -124 -69 -174 0
-216 -21 -216 -110 0 -33 6 -48 29 -71 l29 -29 138 0 137 0 -7 -112 c-4 -62
-9 -115 -12 -119 -2 -4 -30 -22 -62 -39 -186 -106 -296 -243 -309 -389 -7 -78
1 -119 37 -173 83 -126 282 -141 490 -37 60 30 104 64 184 140 113 108 182
201 226 305 15 35 29 66 32 69 11 11 88 -68 97 -101 28 -101 -90 -241 -272
-324 -77 -35 -99 -58 -101 -108 -1 -51 25 -89 72 -103 34 -10 46 -8 101 14
101 41 171 87 257 172 59 59 90 98 115 150 31 64 34 77 34 165 0 80 -4 103
-24 144 -35 71 -109 139 -198 183 -73 36 -83 38 -190 42 -99 3 -213 -8 -258
-25 -13 -5 -15 7 -15 75 l0 81 128 1 c70 0 192 4 271 8 l143 7 29 32 c31 35
37 73 17 117 -23 51 -52 57 -241 50 -95 -3 -209 -8 -254 -11 l-82 -5 6 69 c5
65 4 70 -23 101 -37 41 -87 50 -130 22z m292 -748 c-14 -38 -73 -126 -113
-171 l-43 -47 3 100 2 100 60 17 c81 22 99 22 91 1z m-356 -242 l0 -119 -44
-11 c-70 -17 -124 -14 -135 8 -20 36 25 123 93 181 27 24 78 60 84 60 1 0 2
-53 2 -119z"/>
<path d="M2300 4183 c-43 -41 -45 -105 -4 -147 l27 -26 496 0 c550 0 529 -2
551 65 9 26 9 44 0 69 -22 68 -6 66 -549 66 l-491 0 -30 -27z"/>
<path d="M2323 3730 c-47 -19 -71 -98 -44 -149 25 -46 54 -51 311 -51 198 0
248 3 275 15 51 25 69 84 43 140 -23 51 -45 55 -315 54 -136 0 -258 -4 -270
-9z"/>
<path d="M2370 1935 c-209 -47 -384 -216 -456 -440 -31 -97 -43 -260 -25 -348
32 -149 139 -286 279 -355 76 -37 78 -37 202 -37 149 0 211 17 310 83 59 39
66 42 75 26 49 -85 147 -144 245 -147 58 -2 63 0 91 31 61 68 16 172 -74 172
-57 0 -108 81 -110 176 -1 27 18 209 42 404 25 202 41 368 37 383 -9 39 -61
69 -109 63 -48 -6 -74 -29 -87 -77 l-11 -39 -49 36 c-98 70 -236 97 -360 69z
m217 -225 c28 -16 66 -48 85 -71 18 -23 43 -52 54 -65 l22 -23 -24 -185 c-25
-204 -38 -240 -104 -306 -49 -49 -119 -85 -190 -98 -101 -19 -187 13 -263 98
-55 62 -77 122 -77 215 0 179 96 351 235 422 68 35 91 41 155 42 44 1 66 -5
107 -29z"/>
<path d="M3453 1799 c-43 -12 -63 -44 -63 -97 0 -35 6 -49 29 -73 l29 -29 487
0 c534 0 530 0 555 60 18 43 3 97 -33 124 -28 21 -38 21 -500 23 -273 1 -486
-2 -504 -8z"/>
<path d="M3421 1304 c-27 -22 -31 -32 -31 -74 0 -38 5 -53 26 -74 l27 -26 269
0 270 0 29 29 c23 23 29 38 29 71 0 33 -6 48 -29 71 l-29 29 -265 0 -265 0
-31 -26z"/>
</g>
</svg>
