<svg xmlns="http://www.w3.org/2000/svg" viewBox="0 0 1440 320"><path fill="#2499c7" fill-opacity="1" d="M0,192L24,192C48,192,96,192,144,170.7C192,149,240,107,288,80C336,53,384,43,432,48C480,53,528,75,576,106.7C624,139,672,181,720,170.7C768,160,816,96,864,64C912,32,960,32,1008,53.3C1056,75,1104,117,1152,144C1200,171,1248,181,1296,181.3C1344,181,1392,171,1416,165.3L1440,160L1440,320L1416,320C1392,320,1344,320,1296,320C1248,320,1200,320,1152,320C1104,320,1056,320,1008,320C960,320,912,320,864,320C816,320,768,320,720,320C672,320,624,320,576,320C528,320,480,320,432,320C384,320,336,320,288,320C240,320,192,320,144,320C96,320,48,320,24,320L0,320Z"></path></svg>